CSPredictedFLsDeGroote.mot
version=1
nRows=23
nColumns=39
inDegrees=no
endheader
time	tibant_l	tibpost_l	gasmed_l	gaslat_l	soleus_l	edl_l	ehl_l	fdl_l	fhl_l	perbrev_l	perlong_l	bflh_l	bfsh_l	recfem_l	semimem_l	semiten_l	vasint_l	vaslat_l	vasmed_l	tibant_r	tibpost_r	gasmed_r	gaslat_r	soleus_r	edl_r	ehl_r	fdl_r	fhl_r	perbrev_r	perlong_r	bflh_r	bfsh_r	recfem_r	semimem_r	semiten_r	vasint_r	vaslat_r	vasmed_r
23.98999977	0.37277502	0.38141978	0.51207292	0.49762100	0.38100263	0.51057518	0.47048342	0.49622548	0.46178350	0.23655054	0.47079358	0.40202454	0.20011871	0.51267505	0.38137987	0.42819580	0.32128331	0.33452716	0.31012124	0.36306515	0.38447073	0.53963280	0.52921504	0.39186555	0.50251472	0.46218273	0.49925843	0.46590114	0.23857199	0.47316509	0.40094075	0.22968574	0.49921188	0.39674887	0.44393310	0.28716961	0.29980883	0.27620089
24	0.37135503	0.38183022	0.51888341	0.50534308	0.38261473	0.50945407	0.46939623	0.49672225	0.46239993	0.23681228	0.47110620	0.40395817	0.20141590	0.51123798	0.38380837	0.43082222	0.32017639	0.33332315	0.30914542	0.36295944	0.38449842	0.53976035	0.52936888	0.39197114	0.50242734	0.46209121	0.49928343	0.46593970	0.23859321	0.47318968	0.40068865	0.22976035	0.49929610	0.39658672	0.44375053	0.28702384	0.29966453	0.27605617
24.01000023	0.37068385	0.38199854	0.52220237	0.50898927	0.38334307	0.50894314	0.46889246	0.49692687	0.46266335	0.23692255	0.47124863	0.40582487	0.20276858	0.50953746	0.38621068	0.43342581	0.31897384	0.33197695	0.30786216	0.36284173	0.38452914	0.53989983	0.52953154	0.39208844	0.50233001	0.46198931	0.49931115	0.46598247	0.23861678	0.47321698	0.40043125	0.22983018	0.49938783	0.39641917	0.44356096	0.28688699	0.29952922	0.27592030
24.02000046	0.36999595	0.38218051	0.52535516	0.51242948	0.38409466	0.50840902	0.46837044	0.49714071	0.46293589	0.23703882	0.47139907	0.40764889	0.20423356	0.50782377	0.38858995	0.43607450	0.31770295	0.33059603	0.30652320	0.36270469	0.38456470	0.54005921	0.52971458	0.39222452	0.50221682	0.46187073	0.49934322	0.46603206	0.23864414	0.47324869	0.40016669	0.22989587	0.49948791	0.39624453	0.44336283	0.28675783	0.29940170	0.27579209
24.03000069	0.36965001	0.38226187	0.52676725	0.51384741	0.38445035	0.50814128	0.46811193	0.49722713	0.46305189	0.23708886	0.47147587	0.40939865	0.20585470	0.50593662	0.39093432	0.43872553	0.31627950	0.32909632	0.30500135	0.36254346	0.38460627	0.54024374	0.52992129	0.39238408	0.50208360	0.46173123	0.49938071	0.46609008	0.23867622	0.47328591	0.39989507	0.22995755	0.49959737	0.39606121	0.44315475	0.28663623	0.29928184	0.27567142
24.04000092	0.36934549	0.38234851	0.52775818	0.51479536	0.38477108	0.50788218	0.46787944	0.49730706	0.46315765	0.23713940	0.47155103	0.41120380	0.20778884	0.50380886	0.39343885	0.44160354	0.31453779	0.32729807	0.30319002	0.36235785	0.38465384	0.54045320	0.53015119	0.39256701	0.50193036	0.46157068	0.49942350	0.46615651	0.23871301	0.47332862	0.39961815	0.23001422	0.49971730	0.39586830	0.44293600	0.28652421	0.29917154	0.27556026
24.04999924	0.36919826	0.38239875	0.52824974	0.51523167	0.38491511	0.50772601	0.46776110	0.49734077	0.46320182	0.23717017	0.47159123	0.41294730	0.20989594	0.50167537	0.39593723	0.44448337	0.31266585	0.32535058	0.30127424	0.36214975	0.38470674	0.54068506	0.53040171	0.39277112	0.50175858	0.46139073	0.49947107	0.46623048	0.23875409	0.47337636	0.39933825	0.23006439	0.49984881	0.39566544	0.44270653	0.28642476	0.29907376	0.27546161
24.05999947	0.36915883	0.38242978	0.52862865	0.51562685	0.38494304	0.50764257	0.46771777	0.49735281	0.46320763	0.23718891	0.47160572	0.41472194	0.21216474	0.49946383	0.39850253	0.44743672	0.31060380	0.32322708	0.29924893	0.36191988	0.38476464	0.54093808	0.53067023	0.39299536	0.50156891	0.46119210	0.49952307	0.46631157	0.23879926	0.47342888	0.39905763	0.23010650	0.49999237	0.39545318	0.44246715	0.28634113	0.29899159	0.27537864
24.06999969	0.36925858	0.38242489	0.52904189	0.51617938	0.38481757	0.50766957	0.46778026	0.49733025	0.46316260	0.23718759	0.47158235	0.41657293	0.21449427	0.49712667	0.40118611	0.45052406	0.30834958	0.32090807	0.29708445	0.36167255	0.38482633	0.54120713	0.53095132	0.39323524	0.50136489	0.46097842	0.49957842	0.46639812	0.23884760	0.47348514	0.39877918	0.23013890	0.50014716	0.39523393	0.44222119	0.28627667	0.29892835	0.27531472
24.07999992	0.36949408	0.38238013	0.52946901	0.51684725	0.38453701	0.50781631	0.46794483	0.49727163	0.46306419	0.23716395	0.47152084	0.41844225	0.21676253	0.49483263	0.40394077	0.45368013	0.30600667	0.31843966	0.29478157	0.36142117	0.38488844	0.54147756	0.53122938	0.39347762	0.50115764	0.46076131	0.49963400	0.46648535	0.23889647	0.47354206	0.39850610	0.23015937	0.50031203	0.39501122	0.44197339	0.28623590	0.29888833	0.27527428
24.09000015	0.36983359	0.38230199	0.52987725	0.51756585	0.38413531	0.50807041	0.46818843	0.49718529	0.46292540	0.23711927	0.47142929	0.42026752	0.21885732	0.49261296	0.40660614	0.45678243	0.30367273	0.31596142	0.29243526	0.36117902	0.38494763	0.54173481	0.53148854	0.39370963	0.50095814	0.46055230	0.49968693	0.46656862	0.23894329	0.47359666	0.39823925	0.23016459	0.50048894	0.39478540	0.44172484	0.28622550	0.29887816	0.27526397
24.10000038	0.37022215	0.38220525	0.53010851	0.51810724	0.38368729	0.50840670	0.46848896	0.49708560	0.46276584	0.23705065	0.47132790	0.42206910	0.22087705	0.49026829	0.40927136	0.45995426	0.30110693	0.31333566	0.28984228	0.36094722	0.38500375	0.54197711	0.53172576	0.39393046	0.50076717	0.46035230	0.49973702	0.46664771	0.23898789	0.47364873	0.39797512	0.23015043	0.50068521	0.39455071	0.44146934	0.28625372	0.29890582	0.27529192
24.11000061	0.37059054	0.38210848	0.53018850	0.51847816	0.38327026	0.50875878	0.46879834	0.49699506	0.46261472	0.23696998	0.47123688	0.42371255	0.22274476	0.48796493	0.41176531	0.46298102	0.29844216	0.31067485	0.28712720	0.36071706	0.38505897	0.54221314	0.53194839	0.39414853	0.50057769	0.46015376	0.49978620	0.46672562	0.23903196	0.47370023	0.39770731	0.23011316	0.50091064	0.39429787	0.44119644	0.28632787	0.29897860	0.27536550
24.12000084	0.37090117	0.38202181	0.53016275	0.51872140	0.38291907	0.50909024	0.46907973	0.49692267	0.46248788	0.23689237	0.47116673	0.42510039	0.22445649	0.48585734	0.41392094	0.46560368	0.29581460	0.30807036	0.28441235	0.36047894	0.38511553	0.54245251	0.53216523	0.39437282	0.50038171	0.45994845	0.49983653	0.46680558	0.23907730	0.47375324	0.39742875	0.23005037	0.50117391	0.39401776	0.44089562	0.28645256	0.29910108	0.27548921
24.12999916	0.37118375	0.38193360	0.52996987	0.51879501	0.38259748	0.50941932	0.46933717	0.49686813	0.46237662	0.23682243	0.47110027	0.42626229	0.22606665	0.48386183	0.41571397	0.46784055	0.29320681	0.30555147	0.28176051	0.36022609	0.38517496	0.54270214	0.53238297	0.39460954	0.50017369	0.45973057	0.49988934	0.46688974	0.23912519	0.47380933	0.39713240	0.22996148	0.50148106	0.39370278	0.44055805	0.28662845	0.29927418	0.27566370
24.13999939	0.37135786	0.38184682	0.52977002	0.51884884	0.38239115	0.50963730	0.46952379	0.49682885	0.46231300	0.23677203	0.47106275	0.42715070	0.22752313	0.48208222	0.41709971	0.46963090	0.29072517	0.30322129	0.27929792	0.35995555	0.38523790	0.54296452	0.53260434	0.39486122	0.49995121	0.45949748	0.49994516	0.46697900	0.23917615	0.47386906	0.39681101	0.22984704	0.50183648	0.39334664	0.44017595	0.28685385	0.29949650	0.27588743
24.14999962	0.37141365	0.38180256	0.52970850	0.51908481	0.38229865	0.50973827	0.46958548	0.49682596	0.46231306	0.23676650	0.47102895	0.42775631	0.22875950	0.48066747	0.41802007	0.47087568	0.28859639	0.30121893	0.27721477	0.35966802	0.38530400	0.54323828	0.53282905	0.39512682	0.49971488	0.45924988	0.50000364	0.46707293	0.23922998	0.47393221	0.39645806	0.22970717	0.50224376	0.39294472	0.43974298	0.28712776	0.29976740	0.27615938
24.15999985	0.37136754	0.38177747	0.52987701	0.51957244	0.38231051	0.50973928	0.46953908	0.49684292	0.46231920	0.23678866	0.47101834	0.42815721	0.22980137	0.47954357	0.41862518	0.47173065	0.28676310	0.29945058	0.27543640	0.35936677	0.38537240	0.54351926	0.53305238	0.39540312	0.49946737	0.45899060	0.50006407	0.46717033	0.23928602	0.47399804	0.39606929	0.22954021	0.50270623	0.39249429	0.43925452	0.28745246	0.30008957	0.27648184
24.17000008	0.37122831	0.38177699	0.53023726	0.52025431	0.38244498	0.50962037	0.46939811	0.49687949	0.46234527	0.23683414	0.47102079	0.42844972	0.23066431	0.47861779	0.41908041	0.47240907	0.28517148	0.29788345	0.27391887	0.35905662	0.38544193	0.54380125	0.53326446	0.39568540	0.49921268	0.45872375	0.50012535	0.46726954	0.23934333	0.47406545	0.39564401	0.22934237	0.50322658	0.39199480	0.43870839	0.28783405	0.30046952	0.27686092
24.18000031	0.37099448	0.38180265	0.53078556	0.52112049	0.38269657	0.50937337	0.46917576	0.49691582	0.46239439	0.23689884	0.47104499	0.42861965	0.23131397	0.47793016	0.41938797	0.47289553	0.28387946	0.29658327	0.27270478	0.35874286	0.38551131	0.54407716	0.53346306	0.39596877	0.49895513	0.45845395	0.50018632	0.46736881	0.23940092	0.47413328	0.39518529	0.22910866	0.50380611	0.39144778	0.43810511	0.28828040	0.30091581	0.27730453
24.19000053	0.37084660	0.38184446	0.53116429	0.52191603	0.38282332	0.50918692	0.46897545	0.49695101	0.46241167	0.23697081	0.47101617	0.42870969	0.23180515	0.47742444	0.41961360	0.47325504	0.28283995	0.29550540	0.27173257	0.35843033	0.38557953	0.54434049	0.53364152	0.39624885	0.49869871	0.45818534	0.50024617	0.46746662	0.23945789	0.47420046	0.39469731	0.22883475	0.50444484	0.39085469	0.43744618	0.28879765	0.30143529	0.27781871
24.20000076	0.37079433	0.38183421	0.53128958	0.52249527	0.38286361	0.50907767	0.46885461	0.49697164	0.46237412	0.23702773	0.47099915	0.42872936	0.23216970	0.47706011	0.41978356	0.47351885	0.28199399	0.29462028	0.27094775	0.35812411	0.38564548	0.54458511	0.53378808	0.39652112	0.49844760	0.45792225	0.50030386	0.46756139	0.23951334	0.47426593	0.39418197	0.22851872	0.50514227	0.39021441	0.43673179	0.28938651	0.30202958	0.27840424
24.20999908	0.37092373	0.38178247	0.53100938	0.52265966	0.38266671	0.50905675	0.46884236	0.49692366	0.46234286	0.23707482	0.47090065	0.42865631	0.23244229	0.47685206	0.41985384	0.47363380	0.28134510	0.29396233	0.27035636	0.35783175	0.38570762	0.54480273	0.53389812	0.39677912	0.49820796	0.45767120	0.50035810	0.46765092	0.23956592	0.47432810	0.39363787	0.22816202	0.50589699	0.38952363	0.43596056	0.29004130	0.30269369	0.27905539
